<svg width="44" height="44" viewBox="0 0 44 44" fill="none" xmlns="http://www.w3.org/2000/svg">
<circle cx="22" cy="22" r="21" stroke="white" stroke-width="2"/>
<path fill-rule="evenodd" clip-rule="evenodd" d="M28.1348 12H15.8652C13.7345 12 12 13.7333 12 15.8652V28.1348C12 30.2667 13.7345 32 15.8652 32H28.1348C30.2655 32 32 30.2667 32 28.1348V15.8652C32 13.7333 30.2655 12 28.1348 12V12ZM29.2437 14.306L29.6858 14.3036V17.6938L26.3062 17.7044L26.2944 14.3142L29.2437 14.306V14.306ZM19.146 19.9468C19.7857 19.0602 20.8253 18.4793 22 18.4793C23.1747 18.4793 24.2143 19.0602 24.854 19.9468C25.2714 20.5254 25.5207 21.2333 25.5207 22C25.5207 23.9403 23.9414 25.5195 22 25.5195C20.0597 25.5195 18.4805 23.9403 18.4805 22C18.4805 21.2333 18.7298 20.5254 19.146 19.9468V19.9468ZM30.0515 28.1348C30.0515 29.1919 29.1919 30.0515 28.1348 30.0515H15.8652C14.8081 30.0515 13.9485 29.1919 13.9485 28.1348V19.9468H16.9353C16.6766 20.5818 16.532 21.2745 16.532 22C16.532 25.0151 18.9849 27.4692 22 27.4692C25.0162 27.4692 27.4692 25.0151 27.4692 22C27.4692 21.2745 27.3222 20.5818 27.0659 19.9468H30.0515V28.1348V28.1348Z" fill="white"/>
</svg>
