<svg width="44" height="44" viewBox="0 0 44 44" fill="none" xmlns="http://www.w3.org/2000/svg">
<circle cx="22" cy="22" r="21" stroke="#04A3DD" stroke-width="2"/>
<path fill-rule="evenodd" clip-rule="evenodd" d="M10 22.3044C10 27.7398 13.438 32.3519 18.2065 33.9789C18.8069 34.0922 19.0257 33.7123 19.0257 33.386C19.0257 33.0937 19.0154 32.3202 19.0095 31.2937C15.6716 32.0369 14.9674 29.644 14.9674 29.644C14.4215 28.2225 13.6347 27.8441 13.6347 27.8441C12.5452 27.0804 13.7172 27.0963 13.7172 27.0963C14.9217 27.1832 15.5552 28.3645 15.5552 28.3645C16.6264 30.2445 18.3642 29.7014 19.0478 29.3865C19.1568 28.5911 19.467 28.0495 19.8095 27.7413C17.145 27.4309 14.3434 26.3757 14.3434 21.6609C14.3434 20.3171 14.8112 19.2189 15.5788 18.3586C15.4558 18.0474 15.044 16.7965 15.6967 15.1031C15.6967 15.1031 16.7044 14.7715 18.9962 16.3637C19.9539 16.091 20.9801 15.9543 22.0004 15.9498C23.0199 15.9543 24.0461 16.091 25.0052 16.3637C27.2956 14.7715 28.3019 15.1031 28.3019 15.1031C28.956 16.7965 28.5442 18.0474 28.4212 18.3586C29.1903 19.2189 29.6544 20.3171 29.6544 21.6609C29.6544 26.387 26.8491 27.4271 24.1758 27.7323C24.6067 28.1122 24.9898 28.863 24.9898 30.0104C24.9898 31.6555 24.9758 32.9826 24.9758 33.386C24.9758 33.7153 25.1916 34.0975 25.8009 33.9774C30.5649 32.3474 34 27.7391 34 22.3044C34 15.5087 28.6267 10 21.9989 10C15.3733 10 10 15.5087 10 22.3044Z" fill="#04A3DD"/>
</svg>
