<svg width="44" height="44" viewBox="0 0 44 44" fill="none" xmlns="http://www.w3.org/2000/svg">
<circle cx="22" cy="22" r="21" stroke="#04A3DD" stroke-width="2"/>
<path fill-rule="evenodd" clip-rule="evenodd" d="M12.5045 18.4131H16.4026V31.9987H12.5045V18.4131ZM14.3542 16.7138H14.326C12.9149 16.7138 12 15.6752 12 14.3601C12 13.0181 12.9419 12 14.3812 12C15.8194 12 16.7037 13.0155 16.7319 14.3563C16.7319 15.6714 15.8194 16.7138 14.3542 16.7138V16.7138ZM32 32H27.5797V24.9684C27.5797 23.1282 26.8883 21.8732 25.3678 21.8732C24.2048 21.8732 23.5581 22.7197 23.2571 23.538C23.1442 23.8299 23.1618 24.2384 23.1618 24.6482V32H18.7827C18.7827 32 18.8391 19.5451 18.7827 18.4131H23.1618V20.5453C23.4205 19.613 24.8198 18.2825 27.0529 18.2825C29.8234 18.2825 32 20.2379 32 24.4446V32V32Z" fill="#04A3DD"/>
</svg>
